<?xml version="1.0" encoding="utf-8"?>
<!-- Generator: Adobe Illustrator 21.0.2, SVG Export Plug-In . SVG Version: 6.00 Build 0)  -->
<svg version="1.1" id="Layer_1" xmlns="http://www.w3.org/2000/svg" xmlns:xlink="http://www.w3.org/1999/xlink" x="0px" y="0px"
	 viewBox="0 0 1000 205" style="enable-background:new 0 0 1000 205;" xml:space="preserve">
<style type="text/css">
	.st0{fill:none;stroke:#5000FF;stroke-width:3;stroke-miterlimit:10;}
</style>
<path class="st0" d="M21.7,194.4c29.3-5.2,63.1-8.6,90.3-21.2c10.9-5,34-18.5,36.2-31.1c2.5-14.4-7.2-13.9-20.6-6.8
	c-10.7,5.7-26.2,22.7-14,34.3c8.2,7.8,33.4,4.2,44,3.2c28.3-2.6,61.5-9.5,86.1-23.9c-8.3,7.5-20.6,20.8-8.5,29.7
	c19.6,14.3,31.3-15.2,32.5-28.7c1.2-13.7-3.5-27-0.4-40.5c5.1-22.2,24.3-37.6,46.7-39.7c-8.1,5.1-23.5,14.7-23.3,25.9
	c0.3,17,16.6,15.1,26.4,5.1c18.4-19,13.6-53.7,44.6-63.4c-10.4,7.7-25.8,23.1-17.8,37.3c12.2,21.5,20,2.2,22.7-9.1
	c-0.1,0.4,6.5,8.3,6.5,9.8c0,7.4-3.3,12.7-7.2,18.8c-6.1,9.7-19.3,17.7-19.2,30.3c0.1,11.7,9.5,20.2,21.6,15.5
	c9.5-3.6,10.4-14.2,13.7-22.1c-1.7,6.6-4,17.2-1.1,23.7c4.6,10.1,19.2,14.4,25.2,2.8c8.2-15.9-22.9-46.5,3.3-56
	c-9,15.7,6.7,38.4,23.4,23.9c15.9-13.8-10.3-42.1,6.6-59.8L452.3,41c-5.7,7.7-14.2,20.5-9.2,30.1c7.8,15,23.6,10.4,21.6-6.5
	c4.1,12.2,27.2,25.1,28.7,6.5c1.1-13.3-30.3-34,0.2-44.9c-15.7,30.9,27.1,54.6,32.6,21.6c13.3,21.5-38.1,53.6-12.1,62.9
	c35.1,12.6,20.4-46,48.9-49.2c-5.6,4.1-12.9,17.2-8.9,25.1c6.8,13.1,22.4,6.5,28.2-1.6c15.9-22.2-3.9-43.9,24.6-61
	c-7.6,9.5-11.7,19.5-9.3,32.6c2.6,13.6,22.6,12.4,33.1,0.8c-8.7,16.7-20.4,52.1-4.9,62.8c21,14.6,35.4-16.5,31.7-32.9
	c14.2,17.3,17.2,37.5,33,53.4c13.4,13.5,62.2,27.6,47.5-7c28.6,18.6,60.3,30.5,94.3,34c14.8,1.5,31.7,3.2,45.9-2
	c16.7-6,30.3-21.3,9.5-34.8c-13.5-8.7-27.3-3.9-21.4,12.9c4.2,11.9,16.7,16.5,27.2,21c26.2,11.2,50.5,19.8,78.7,24.1"/>
</svg>
